<svg xmlns="http://www.w3.org/2000/svg" width="24" height="24" viewBox="0 0 24 24"><title>manga-62</title><g stroke-linecap="square" stroke-linejoin="miter" stroke-width="2" fill="none" stroke="#000000" stroke-miterlimit="10"><path d="M15,5h2a6,6,0,0,1,6,6v6a6,6,0,0,1-6,6H7a6,6,0,0,1-6-6V11A6,6,0,0,1,7,5H9l6-3Z"></path> <path d="M18,12a2,2,0,0,0-4,0" stroke="#000000"></path> <path d="M10,12a2,2,0,0,0-4,0" stroke="#000000"></path> <path d="M16,17a2,2,0,0,1-4,0,2,2,0,0,1-4,0" stroke="#000000"></path></g></svg>